<?xml version="1.0" encoding="UTF-8" standalone="no"?><svg xmlns="http://www.w3.org/2000/svg" xmlns:xlink="http://www.w3.org/1999/xlink" fill="#ffa5a3" height="3003.2" preserveAspectRatio="xMidYMid meet" version="1" viewBox="83.2 132.5 3116.9 3003.2" width="3116.9" zoomAndPan="magnify"><defs><clipPath id="a"><path d="m0 0h3281v3267h-3281z"/></clipPath></defs><g clip-path="url(#a)"><g fill-rule="evenodd" id="change1_1" stroke-width="0"><path d="m1068.8 134.89c-2.99-0.942-7.33-1.818-9.66-1.947-8.69-0.48-7.84 9.249-10.27 15.267-0.69 1.708-1.26 2.809-2.56 4.104-3.36 3.366-6.13 6.865-8.25 11.11-6.1 5.083-14.86 3.338-20.67-1.593-4.31-3.669-8.35-5.119-13.95-5.741-10.326-1.15-17.158 5.681-13.103 16.354 5.837 15.364-2.274 29.35-4.419 44.37-0.665 4.654-1.917 8.834-4 13l-0.552 2c-1.809 6.552-8.185 9.338-14.503 9.606-13.025 0.551-17.388 5.876-26.176 14.906-11.846 4.553-19.104 18.522-22.765 29.87-1.989 6.168-6.651 7.623-12.108 9.514-4.167 1.753-6.581 3.685-9.792 6.896-2.861 0.505-5.48 3.298-6.352 6.152-1.229 4.021-6.951 8.028-9.856 11.056-1.619 2.098-3.069 4.244-4.26 6.624-1.605 3.209-6.809 9.002-11.017 5.28-2.892-2.558-4.235-7.083-5.476-10.723-7.099-5.915-13.648-4.1-20.222 1.503-5.152 4.39-4.714 14.401-2.421 19.938 2.665 6.438 0.86 11.494-2.396 17.17-1.432 3.016-2.104 5.918-2.104 9.32 0 17.257-22.012 30.784-37.735 30.784-9.704 0-10.365-6.816-9.718-15.108 0.541-6.93 0.07-12.275-4.651-16.996-4.775-4.775-10.829-6.863-16.792-9.792-9.995-4.038-18.916-1.104-29.208-1.104-9.853 0-14.407 8.193-17.344 16.448-2.205 6.198-7.947 6.822-13.656 4.448-4.088-4.375-8.887-5.896-15.1-5.896-6.96 0-11.115-2.422-16.491-6.188-3.233-2.264-8.474-2.812-12.409-2.812-7.456 0-12.593 1.926-17.979 6.798-8.594 7.776-5.173 22.058 0.979 30.098 2.355 3.246 3.139 7.041 4.656 10.708 2.329 5.63 4.689 9.228 9.087 13.566 6.936 6.843 11.361 17.06 11.361 26.934 0 4.668-1.959 11.93-8.163 10.382-3.469-0.866-8.106 0.875-10.837 2.962-9.025 6.893-11 12.854-11 24.156 0 8.297 0.839 15.776 7.376 21.201 7.5 6.224 12.877 14.137 10.072 24.299-2.043 7.398-11.872 9.398-18.22 6.806-6.435-2.628-11.831-8.945-17.228-13.41-3.217-2.662-5.932-5.363-7.828-9.158-4.439-8.876-16.096-7.538-24.452-6.786-8.62 0.777-13.453-3.887-19.54-9.1-3.981-3.41-4.763-9.26-5.704-14.234-2.149-11.35-7.661-17.157-16.424-23.67-3.26-2.423-6.388-5.019-9.513-7.612-6.239-5.176-15.027-4.524-22.559-2.843-2.704 0.603-5.38 0.731-5.948 0.285-3.865-3.037 2.24-10.936 3.416-13.778 1.808-4.372 4.293-11.276 1.4-15.75-2.936-4.536-7.213-6.589-11.952-8.854-5.072-1.459-9.419 2.954-9.896 8-0.388 4.1-7.937 8.633-11.201 10.049-8.76 3.801-12.306-3.985-15.622-10.829l-1.644-1.196c-0.905-0.659-2.52-0.982-3.589-0.718-7.776 1.914-0.524 11.934 0.556 15.694 0.589 2.052 1.339 4.018 2.104 6.012 1.693 4.414 4.265 6.501 8.5 8.092 2.048 2.048 4.099 4.054 6.303 5.937 2.912 2.489 6.873 3.137 10.489 3.959 2.148 2.778 0.6 6.617-0.396 9.604-2.497 7.492-0.589 15.397 2.964 22.377 1.833 3.6 4.616 5.204 7.677 7.868 5.567 4.844 2.067 18.385-0.193 23.755-1.344 3.194-2.792 6.18-5 8.896-6.493 7.985-3.757 18.122 6.052 21.448 4.16 1.409 7.856 3.014 10.787 6.312 7.577 8.524 1.577 22.533 0.765 32.24-0.884 10.572-4.956 14.829-12.656 20.604-3.852 2.957-8.032 3.724-12.5 1.844-6.175-2.599-11.325-8.851-13.5-15.052-8.579-10.295-23.136-23.328-37-16.396-5.651 2.825-11.893 4.09-18 5.5l-2.305 0.928c-9.648 3.888-9.811 18.925-5.699 26.908 1.456 2.826 5.845 5.966 8.603 7.362 2.332 1.18 1.192 5.032-0.842 5.915-7.714 3.347-10.638-5.832-13.581-10.971-7.708-5.605-15.497 4.672-22.424 7.81-3.747 1.697-6.683 4.082-9.544 6.944-3.205 0.302-4.751 2.75-7 5-4.476 1.648-7.912 1.94-12.789 0.597-4.511-1.243-9.384-1.609-12.675 2.339-2.789 3.346-3.244 10.773-2.239 14.844 1.638 6.637-1.266 14.432-6.505 18.428-4.892 3.737-9.079 4.821-15.275 5.325-10.106 0.824-10.676 9.564-8.621 17.571 0.579 2.253 1.123 4.497 1.585 6.776 1.468 7.222-5.384 7.564-9.945 10.516-8.648 5.596 4.16 12.73 7.789 15.741 7.274 6.033 17.492 8.404 26.5 5.905 6.119-1.697 15.071 4.146 15.071 10.916 0 6.376-11.625 3.919-15.28 3.59-11.02-0.994-17.179 6.472-21.72 15.556-1.18 2.301-2.411 4.48-4.052 6.5-1.336 1.642-2.208 3.04-3 5-3.184 7.88-10.641 10.846-17.805 14.428-4.98 6.848-4.734 12.406-2.143 20.176 2.872 6.254 5.019 12.789 6.948 19.396 1.353 4.636 3.045 9.237 6.104 13 7.047 8.666 6.359 20.249 8.948 30.604 2.068 8.27-3.561 13.457-11.069 15.414-3.166 0.824-8.871 4.458-4.656 8.187 1.508 1.333 2.898 1.827 4.818 2.475 5.383 1.818 4.298 10.622 3.007 15.105-0.605 2.101-2.043 5.683-3.196 7.959-2.76 5.452-6.753 4.834-12.052 3.204-4.56-1.404-6.049-1.404-15.5 0-5.751 0.853-13.156 1.552-16.456 1.552-5.964 0-11.9-0.73-16.896-4-3.132-2.051-6.583-3.507-10-5-6.08-3.118-11.557-8.139-14.428-14.41-3.653-7.978-10.395-10.489-17.572-14.59-3.677-2.43-7.431-4.656-11.388-6.616-3.956-1.96-8.008-3.302-9.112 2.22-1.492 7.458 3.144 12.122 7.472 17.114 2.569 5.43 5.237 10.804 7.924 16.178 3.123 7.292 1.576 13.698-1.536 20.625-2.659 5.917 0.997 8.157 6.112 10.715 6.313 3.157 9.659 8.882 12.528 15.066 0 6.252-2.719 9.416-6.896 13.594-0.793 2.512-2.043 3.661-4.003 5.552-2.034 1.964-3.589 4.728-4.189 7.45-1.049 4.75-3.159 5.411-7.587 4.108-10.941-3.212-22.265 1.943-33.058 3.573-6.671 1.01-12.195-3.086-17.074-7.013-7.377-5.936-22.312-6.972-29.705-0.694-1.9947 1.693-2.6373 2.113-3.936 2.576-5.184 1.844-9.8333 5.731-10.383 11.571-0.908 9.66 9.0387 20.27 15.169 26.6 6.6543 6.88 9.6043 14.54 11.238 23.73 0.895 5.03-1.857 10.19-3.681 14.75-2.68 5.66-0.503 10.92 3.9 15.24 3.812 3.73 6.204 7.47 6.204 12.91 0 8.72 3.647 10.83 12.471 11.81 7.794 0.87 9.794 3.32 13.082 10.1 3.326 6.86 3.53 13.45 2.288 20.88-1.973 11.79 3.455 17.86 12.342 24.65 5.348 4.09 13.097 1.26 18.713-0.59 9.255 1.22 9.968 10.55 13.861 17.96 3.312 6.31 4.595 11.21 3.255 18.2-1.008 5.27-0.404 10.13 2.936 14.24 1.925 2.37 3.117 4.65 4.295 7.41 4.641 4.1 9.238 4.98 15.361 6.09 3.025 0.55 6.579 1.88 7.896 2.95 1.561 1.27 2.605 1.98 3 2.05 2.453 0.42 5.596 5.09 7.101 7.06 3.96 5.16 6.399 13.55 6.399 19.86 0 8.04-9.873 9.95-14.5 14.58-2.816 2.82-5.92 4.32-9.104 6.55-8.015 5.63-7.396 14.66-7.396 23.55 0 6.03-2.809 11.12-5.5 16.5-1.925 3.86-3.76 8.46-4.077 10.25-1.274 7.16 4.301 13.25 6.577 19.65 2.448 3.59 6.264 4.98 10.561 5.77 7.93 1.45 7.032-8.51 5.539-13.14-2.38-7.39-2.521-12.89 0.9-19.73 2.732-9.9 11.943-13.4 20.983-16.25l4.384 4.22c4.342 4.19 13.1 7.87 17.674 1.57 2.59-3.56 2.959-7.85 2.959-12.04 0-5.83 2.364-14.22 9.823-10.49 5.552 2.78 7.917 11.17 10.089 16.47 1.46 3.56 3.907 4.56 7.56 6.04 6.215 2.53 7.099 6.29 8.528 12.48 2.665 4.58 4.361 5.57 10.053 5.81 3.763 0.16 7.78 0.73 8.927 1.26 8.908 4.13-1.351 13.87-4.56 18.06-5.283 6.88 1.064 17.71 3.476 24.87 1.669 5.81 5.025 9.37 8.621 14.04 2.799 3.64 2.043 7.05-0.017 11.22-2.912 5.9-3.724 12.83 1.755 17.4 3.218 2.69 6.586 5.36 10.345 7.24 4.843 2.42 7.08 7.42 9.296 12.1 0.303 3.2 2.751 4.75 5 7 0.513 2.97 3.985 5.91 5.808 8.3 2.541 3.33 2.401 8.91 3.348 12.9 1.612 6.81 4.508 10.94 9.768 15.44 1.512 1.3 2.22 2.3 3.052 4.11 1.863 4.05 4.88 11.11 3.804 15.48-0.836 3.4-4.703 1.4-6.528 0.47-3.805-1.94-6.401-4.93-8.057-8.87-2.243-5.32-9.282-12.7-15.826-7.68-13.418 10.31-13.022 30.52-4.765 43.95 3.007 4.89 3.989 7.72 4.293 13.35 0.492 9.11 3.758 16.73 5.856 25.4 0.808 3.34-1.465 5.41-4.469 6.29-1.807 0.53-8.068 0.96-13.915 0.96-5.902 0-11.238-0.47-12-1.05-2.582-1.99-4.698-4.45-6.765-6.95-2.369-2.86-2.435-2.94-5.987-6.68-4.99-5.25-15.394-6.7-16.264 2.43-0.344 3.62 0.444 6.63 1.847 9.86 1.207 4.12 2.047 8.2 2.404 12.49 1.067 12.81 10.319 20.98 23.251 18.37 8.698-1.76 10.93 4.68 8.782 11.65-4.765 15.48 5.302 29.41 11.823 42.87 1.353 9.47-4.752 14.13-9.908 21.06-5.121 6.89-7.877 14.63-10.344 22.85-2.407 7.76-9.429 12.83-14.208 19.2-5.597 7.3-7.285 15.64-8.896 24.5-1.555 8.55-1.864 16.97 3 24.4 3.653 5.58 5.369 11.24 6.1 17.9 0.695 6.33 2.461 12.13 4.796 18 0.46 9.26 3.817 19.89 10.777 26.3 7.596 7 21.426 10.06 31.542 8.24 4.092-0.73 10.721 1 7.264 6.22-8.624 13.03 12.813 16.46 21.109 18.01 3.972 0.75 7.656 1.44 11.391 2.96 3.276 1.33 6.656 1.96 10.125 2.47 10.879 3.91 15.589-6.07 23.089-11.8 6.598-5.04 17.263-3.79 23.643 1.14 6.008 4.65 6.392 13.72 7.164 20.66 3.577 6.98 9.971 4.82 14.832 0.45 3.075-2.77 6.075-4.35 10.272-5.05 8.109-1.35 14.091 8.44 19 13.6 2.553 3.35 3.939 7 5.037 11.08 1.347 5.02 3.067 9.85 5.047 14.63 1.085 4.37 1.812 8.15 1.812 12.67 0 6.36-3.304 10.52-9.716 10.52-6.559 0-11.236-5.69-16.18-9.4-7.244-5.43-12.135-11.27-14.572-19.91-1.449-5.14-4.745-11.2-10.9-8.81-3.539 1.37-5.389 5.1-7.632 8.12-2.601 3.7-6.043 5.32-10.104 7.1-2.064 2.07-4.169 4.08-6.321 6.05-11.894 10.91-4.428 23.76 5.425 32.35 6.796 5.92 13.053 12.47 19.279 18.98 2.862 3 7.182 7.18 11.825 6.02 4.664-1.16 11.944-0.34 16.609 1.04 5.782 1.72 9.543-4.05 11.658-8.28 3.593-7.19 10.544-2.1 15.525 0.64 5.247 2.49 11.101 2.63 16.745 1.21 7.42-1.87 10.788 4.39 11.359 10.99 2.151 3.57 4.325 6.02 8.5 7.45 6.664 2.3 8.379 8.89 9.5 15.05 0.681 3.76 1.909 6.99 3.872 10.2-0.703 2.58-7.908-2.66-9.372-3.85-4.337-3.53-10.628-4.86-16.044-5.35-7.46-0.67-8.768-10.32-6.931-16.46 1.986-6.64-5.536-8.2-9.749-10.19-8.325-3.94-18.449-0.15-19.515 9.43-1.169 10.5 7.951 18 14.355 24.85 0.795 1.59 1.589 3.18 2.384 4.77 1.18 2.3 2.411 4.48 4.052 6.5 5.564 6.84-0.375 12.26-7.033 13.52-12.742 2.43-22.159-3.31-31.123-11.12-4.908-4.08-9.913-7.23-16.569-7.76-9.008-0.7-13.963 5.47-19.558 11.42-3.797 4.03-7.252 8.47-4.474 14.03 2.413 4.83 8.37 10.34 13.898 11.11 9.663 1.34 13.091 6.78 16.683 15.61 1.572 3.86 4.899 5.66 8.675 7.41 8.432 3.92 14.356 0.18 22.696-1.32 5.728-1.03 7.172 1.54 11.128 4.73 4.956 3.99-0.098 11.56-0.375 16.71-0.464 8.62 10.328 7.28 15 3.71 5.997-4.58 4.453-9.86 1.848-16.26-2.159-7.47-1.785-13.84-0.744-21.39 1.859-3.85 3.033-7.62 3.401-11.94 0.42-4.93 0.855-6.03 2.552-6.45 4.787-1.19 12.252 2.87 16.839 4.39l6.453 1.53c6.426 1.53 8.876 4.02 11.651 9.57 1.207 1.64 1.703 2.14 3.748 2.65 4.292 1.05 4.727-2.63 5.801-5.84 1.271-3.78 4.519-7.18 6.806-1.91 2.748 6.34 4.049 21.59-7.216 17.69-4.878-1.69-8.099 6.08-8.691 9.41-0.837 4.7-2.315 10.09-6.323 13-7.112 0-11.782-4.5-18.014-7.19-6.452-1.59-15.798 5.74-8.167 11.59 4.225 3.24 6.056 6.5 6.056 12.09 0 11.44 7.997 16.87 14.396 25.41 5.377 7.17 13.188 14.3 22.908 11.16 4.888-1.57 8.856-6.9 10.847-11.49 2.124-4.9-4.052-9.6-6.912-12.66-4.584-4.91-5.872-9.07-4.247-15.57 1.711-6.83 5.395-16.6 10.747-21.34 10.812 0 12.47 10.21 18.761 16.5 4.025 4.03 5.5 7.98 5.5 13.68 0 6.53-5.473 8.69-10.883 10.34-2.969 0.91-10.746 4.32-7.874 8.76 4.044 6.26 12.732 10.22 18.653 14.62 3.079 2.08 6.06 4.28 8.98 6.58 6.753 5.33 15.409 6.68 23.228 3.42 5.912-4.81 18.997-7.8 23.032 1.5 3.084 7.11-1.441 13.54-2.636 20.7-1.149 6.9 3.239 13.13 6.396 18.8 4.265 9.88-10.868 9.28-17 9.65-4.804 0.3-9.487 0.64-14.231 1.43-8.049 1.34-16.644 12.5-20.101 19.95-3.781 8.15-7.988 17.83-4.66 26.67 2.113 5.62 3.933 11.04 4.596 17 0.937 8.44 3.503 13.36 9.223 19.33 6.77 7.06 18.76 11.74 28.381 13.17 9.596 3.64 16.868-2.07 23.396-8.6 5.276-5.28 6.648-11 10.1-17.36 6.38-11.75 7.4-27.84 7.4-40.74 0-3.32 0.74-8.34 5.257-6.25 2.682 1.24 4.93 3.02 7.243 4.85 3.595 2.84 6.912 4.62 11.381 6.12 9.122 3.05 14.367 11.38 18.447 19.54 4.489 8.98 10.364 10.34 19.776 10.34 6.963 1.74 12.473 4.44 18.792 7.9 12.719 6.19 26.297 5.68 40.208 6.1 3.852 0 8.808 0.82 10.792 4.79 2.767 5.54 10.451 14.08 16.543 14.85 9.681 1.23 17.393 3.46 24.665 9.91 13.528 12.02 28.016 18.88 46.292 19.95 4.747 0.28 9.279 0.8 13.708 2.5l2.396 1.95c1.761 1.43 3.563 2.56 5.552 3.6 4.289 2.25 7.283 7.72 10.508 11.33 8.216 2.03 11.952-3.4 12.976-10.91 1.312-9.62 12.187-5.35 18.36-2.97 10.996 3.54 19.556-2.1 30.206-4 5.39-3.78 8.44-7.57 10.79-13.9 4.03-10.06 19.79-22.41 29.71-12.5 5.93 5.93 13.68 10.41 20.4 15.4 1.99 1.38 3.83 2.26 6.1 3.1 5.22 5.22 11.25 9.66 16.9 14.4 6.79 5.7 12.84 12.34 19.1 18.6 7.78 6.23 15.34 12.68 22.72 19.38 8.7 7.9 20.6 8.52 31.78 8.52 10.15 0 14.29-3.34 20.4-10.5 8.42-9.88 18.49-18.28 28.45-26.55 5.16-4.28 10.22 0.67 6.2 5.93-1.59 2.07-3.17 4.15-4.76 6.22-9.66 12.6-6.34 25.17-0.86 38.51 3.68 8.97 13.83 2.43 18.2-1.51 6.93-6.24 17.43-8.38 26.19-4.92 7.56 6.48 10.47 19.47 14.73 28.53 7.29 6.78 17.34 8.69 26.95 6.29 4.82-1.2 8.87 0.45 13.11 2.5 7.94 3.83 18.02-0.93 26.26-1.75 11.87-1.17 21.17-4.94 30.44-12.26 8.66-6.84 14.65-0.49 24.2-0.49 2.72 0 4.87-2.25 6.78-3.9 9.68-3.05 14.97 4 22.31 9.6 8.06 6.16 22.2 1.3 30.9-1.75 3.34-1.17 7.23-2.61 8.84-5.83 2.32-4.65 7.62-10.13 12.72-10.8 8.62-1.14 13.41 5.64 20.44 8.69 3.92 1.7 7.94 1.01 12-0.01 7.47-1.87 13.79 3.43 20.17 6.54 3.32 1.62 6.5 1.03 8.63-1.9 3.36-4.62 3.84-12.67 5.22-18.2 2.4-3.71 5.75-8.44 10.66-8.44 9.7 0 1.59 9.39 0.63 13.28-1.2 4.93 3.04 7.79 6.2 10.6 8.43 4.09 16.72 5.91 25.99 6.62 10.39 0.8 13.68 7.39 20.3 14.73 1.65 1.84 3.28 4.36 3.6 5.61 0.87 3.29 2.85 6.31 4.5 9.26l0.94 2.34c5.14 12.72 24.63 14.6 36.16 17.56 1.27 0.97 2.53 1.93 3.79 2.9 1.56 1.05 3.11 2.1 4.66 3.15 1.13 0.77 2.22 1.57 3.3 2.4 0.96 0.74 2.54 1.64 3.5 2 7.91 2.95 8.3 10.6 9.6 17.84l1.2 1.86c5.02 7.75 13.95 4.41 21.7 6.34 6.91 1.71 5.99 10.64 5.57 16.11-1.01 12.91 2.2 23.08 8.51 34.26 9.9 7.2 19.24 2.88 30.29 2.16 10.24-0.67 11.95 11.66 12.78 19.08 4.16 8.13 13.48 4.53 18.19-1.13 1.74-5.85 1.93-11.54-0.74-17.07-3.86-7.99 0.02-21.73 6.04-28.33 6.14-6.74 7.05-12.4 3.01-20.79-3.96-8.2 3.82-12.44 10.5-15.78 5.77-3.54 10.15-7.94 13-14.1 1.9-5.97 4.16-10.63 8.74-15.16 6.4-6.33 8.41-13.94 1.84-21.02-2.25-2.43-4.39-4.94-6.55-7.44-3.58-8.23-1.25-15.99 2-23.89 3.18-7.74 12.82-3.36 18.07-1.39 4.17 1.75 6.58 3.69 9.79 6.9 1.7 0.29 2.89 1.66 4.15 2.76 3.12 2.7 7.03 3.94 10.85 5.24 6.84 0.32 14.82-3.39 20.16-7.5 8.25-6.36 14.21-16.63 17.05-26.5 7.02-7.02 12.86-14.89 18.79-22.8 5.11-2.93 9.05-8.08 13.21-12.2l2.4-1.9c1.32-1.04 3.37-2.74 4.56-3.77 4.8-4.17 1.79-10.25-0.06-15.13-2.16-7.06 5.62-13.22 8.54-19.19 3.41-6.99 8.71-8.54 16.06-6.91 5.63 1.25 11.37 1.25 17 0 7.9-1.76 16.09-1.06 24 0 8.09 1.08 14.68 0.38 21.29-4 5.46-2.41 7.55-10.4 9.09-15.64 2.52-8.57-1.44-17.49-2.98-25.96-0.83-4.54-2.05-8.75-3.46-13.12-0.61-4.97 0.83-8.83 2.02-13.67 1.18-4.83-4.2-11.6-6.09-15.96-2.81-6.51 4.37-3.86 7.03-1.7 1.61 1.31 3.13 2.19 5.06 2.83 1.11 1.38 2.22 2.75 3.33 4.12 0.41 6.24 5.76 10.45 9.61 15.1 7.43 8.98 16.24 14.59 28.24 14.84 10.04 0.2 19.62 3.16 29.36 5.21 2.75 0.58 5.9 1.48 7 2s4.73 0.7 8.07 0.4c5.76-0.53 10.05 1.23 15.34 2.81 12.13 3.64 28.05 6.93 40.49 3.74 9.59-2.46 19.5-1.55 29.02 1.08 5.92 1.64 11.44-2.06 17.06-3.56 4.32-1.14 8.24 4.81 10.81 7.38 7.01 4.91 15.29 3.56 23.29 5.04 2.79 0.51 5.76 0.59 6.59 0.18 2.96-1.48-0.45-6.54-1.78-7.97-1.85-1.99-3.68-4-5.51-6-4.13-4.55-10.09-13.98-3.5-18.77 6.79-4.94 20.06-1.44 26.52 3.12 10.87 7.67 25.98 8.34 38.89 8.45 11.17 0.09 24.56 4 32.5 11.95l1.5 0.55c1.36 0.5 2.7 0.8 4.11 1.1 2.52 0.54 4.29 1.59 6.5 2.95 3.66 2.25 7.08 3.27 11.2 4.4l1.45 1.1c3.99 3.04 6.13 7.1 8.66 11.26 1.99 3.28 7.1 5.24 10.42 2.69 4.92-3.78 6.51-9.28 7.61-15.27 1.07-5.87 10.33-7.22 15.16-8.63 3.91-1.14 6.6-3.75 9.89-5.95 6.67-4.44 17.68-2.51 24.71-1.1 10.1 0 18.63-2.82 28-6.1 5.21-5.57 12.56-7.22 19.9-4.4 6.52 2.51 14.24 2.57 21.1 2 5.83-0.48 11.5 0.46 17.21 1.47 5.38 3.12 8.69 8.03 13.08 12.43 5.87 5.86 14.44 4.06 21.71 2.6 3.34 0 6.22 0.27 9.5 1 11.81 2.62 22.94-0.34 34.5-1.5 4.24-0.42 8.04-1.35 12.12-2.5 3.71 0 6.53 0.5 10.13 1.61 5.88 1.8 13.33 3.79 19.22 1.06 7.3-3.39 6.43-12.65 6.43-19.37 0-15.01 5.62-30.15 12.7-43.38 4.1-7.68-2.61-11.58-7.76-15.52-8.03-6.16-19.06-5.85-28.58-7.41-6.55-1.07-9.11-3.74-13.47-8.09-5.12-3.92-10.89-5.68-17.09-7.45-7.91-2.25-12.4-13.65-15.66-20.16l-1.74-1.46c-5.66-4.71-11.04 0.4-15.76 3.99-4.24 3.23-12.39 3.15-15.64-1.32-5.79-7.95 8.1-10.85 13.38-11.57 8.68-1.2 12.33-3.52 17.22-10.03 2.21-2.94 4.45-5.88 6.95-8.58 5.74-6.22 15.77 1.29 21.34 4.08 3 1.49 6 2.78 9.21 3.7 2.37 2.38 4.78 4.68 7.26 6.93 7.25 6.54 16.83 6.08 24.64 0.97 6.16-4.03 13.06-5.19 20.36-3.08 4.4 1.27 8.32 4.1 12 6.9 2.83 2.16 8.66 2.96 12.02 1.71 8.81-3.25 14.22-14.14 20.51-20.43 1.26-1.25 2.76-2.2 4.21-3.2 8.9-6.83 19.95-7.31 30.75-8.82 1.75-0.73 3.5-1.46 5.25-2.18l10-10c5.68-7.3 6.2-15.1 3.86-23.79-1.64-1.87-3.34-3.85-4.45-6.09-1.33-2.66 3.69-1.6 5.85-1.7 7.87-0.38 13.85-1.8 18.74-7.92 1.45-1.82 2.92-3.61 4.4-5.4 2.68-3.24 5.7-6.87 9.76-8.41 1.44-0.54 2.37-1.12 4.24-2.64 5.17-4.21 11.38-5.59 17.93-6.1 5.07 1.25 10.86 0.62 15.07-2.8 1.56-1.27 2.6-1.98 3-2.05 1.84-0.32 3.94-2.74 5.39-3.9 9.24-6.26 16.69-14.6 24.31-22.7l1.95-0.75c5.59-2.16 10.85-8.44 10.85-14.53 0-9.6-11.78-11.29-18.75-12.12-4.6-0.55-11.23-2.1-14.75-3.45-7.45-2.85-13.25-3.55-21.11-3.55-4.67 0-10.35-0.44-12.6-0.98-2.26-0.55-5.14-1.87-6.4-2.95-9.68-8.3-23-10.13-35.18-8.14-8.08 1.32-14.16 0.03-21.44-2.93-6.23 0-11.65 2.13-17.59 4-4.72 0-8.67-1.4-13-3.19-6.8-0.85-13.43-2.18-19.79-4.86-2.56-1.08-4.28-2.89-6.45-4.55-8.88-6.81-16.63-0.72-26.05 2.1-9.29 2.79-14.16 0.36-22.53-4.05-5.87-3.1-7.36-3.45-14.5-3.45-5.54 0-10.88-0.01-14.86-4-2.63-2.63-5.33-4.16-8.6-5.8-4.26-4.9-8.71-9.5-13.3-14.1l-1.05-1.5c-2.1-2.99-3.55-6.52-4.93-9.9-2.74-6.75-11.25-7.23-17.7-6.08-5.64 1.01-7.77-3.87-8.71-8.69-1.02-5.2-1.28-10.26-1.51-15.56-0.25-5.57-0.17-11.11 0.17-12.3 1.34-4.65-1.29-11.32-2.27-15.97-0.12-10.69 0.24-22.3 5.48-31.92 2.65-4.87 2.36-9.92 1.85-15.33-0.87-9.26 2.22-15.29 5.67-23.29 1.42-3.3 0.08-6.26-1.28-9.26-2.94-6.47-3.84-14.95-1.83-21.76 1.79-6.06 11.26-12.48 16.69-7.31 5.45 5.19 3.65 15.01-0.63 20.27-1.27 1.56-1.98 2.61-2.05 3-0.06 0.33-0.77 1.47-1.58 2.52-2.83 3.7-6.45 9.69-1.89 13 7.45 5.42 12.25-5.18 18.27-7.96 3.64-1.68 7.5-2.79 11.3-4.06 7.07-3.6 9.68-8.17 13.9-14.5 3.02-4.54 11.65 2.23 14.72 3.74 11.95 2.2 18.61-8.35 19.78-18.84 1.03-9.26 7.47-14.13 13.6-20.5 3.19-4.1 4.89-8.9 6.02-13.91 1.17-5.2 3.12-8.99 9-8.99 8.17 0 8.97 7.16 8.32 13.77-0.74 7.54 3.61 16.99 12.87 13.25 8.01-3.23 11.29-8.06 13.14-16.42 0.48-2.19 2.37-5.16 5.06-4.23 1.05 0.36 2.06 3.08 3.03 8.14 0.8 4.18 2.33 8.67 3.41 9.99 1.27 1.56 1.98 2.61 2.05 3 0.59 3.44 6.49 7.99 9 10.5 4.03 4.04 14.86 9.53 18.26 1.35 2.37-5.72-5.32-7.6-8.52-10.21-8.68-7.08 1.83-14.04 7.36-18.85 7.76-6.74 11.03 0.69 17.9 3.67 4.44 1.93 6.42 0.86 9.88-1.58 5.72-4.03 3.36-15.53 2.62-20.48-1.48-9.88-1.03-18.94 3.5-28 2.1-4.21 3.38-8.41 4.1-13l1.9-3.9c2.95-6.07 1.08-9.67-1.55-15.6-5.02-11.31-16.27-13.71-25.74-20.29-6.85-4.77-7.55-14.41-4.82-21.66 4.74-12.62 3.69-27.06 5.11-40.35 0.62-1.98 1.39-3.82 2.5-5.6 4.29-6.85 5.18-12.56 3.06-20.52-5.77-21.69 5.46-43.76 10.33-64.88 1.9-8.96-3.43-18.19-7-26.2-6.08-10.5-8.23-27.33-5.99-39.2 2.49-13.17-1.61-31.73-11.27-41.88-4.4-4.62-7.4-8.36-10.06-14.12-1.89-4.1-4.32-7.44-7.47-10.6-1.1-6.2-12.88-6.71-17.71-8.15-10.03-3.01-19.82-4.25-30.29-4.95-2.07-0.67-4.14-1.33-6.21-2l-2.39-1.95c-1.43-1.15-2.88-2.2-4.5-3.05-6.31-4.69-13.88-7.08-21.11-10.1l-3.74-2.35c-7.67-4.81-9.99-10.27-11.28-19.02-1.48-10.06-5.84-18.08-13.04-25.22-7.17-7.12-8.84-14.13-11.94-23.41-1.83-5.51-4.67-10.04-7.84-14.85-2.69-4.07-5.06-8.44-3.07-13.38 3.42-8.47 9.6-14.32 18.52-15.67 12.73-1.93 18.42-11.6 22.09-23.07 1.91-5.99 4.63-7.54 10.83-7.74 3.13-0.11 8.39 0.24 11.7 0.76 7.7 1.21 10.04 4.23 14.33 10 3.36 4.52 7.77 8.41 12.05 12.05 5.55 4.73 10.76 9.95 15.5 15.5 3.91 4.59 8.37 8.17 13 12 3.52 2.91 6.66 6.17 9.89 9.4 2.99 2.98 6.37 4.3 10.55 5.06 3.2 0.59 6.24 1.34 9.12 2.82 1.88 2.33 3.34 4.12 4.26 6.98 2.08 6.42 10.37 9.17 16.18 11.24 3.74 1.33 5.57 3.84 8.66 6.31 2.74 2.18 6.26 3.39 9.44 4.79l4.5 4.5c3.42 3.42 5.3 7.6 7.78 11.66 8.38 13.72 25.2 10.14 38.55 14.75 1.75 0.6 4.3 1.75 5.67 2.54 11.93 6.91 19.42-5.81 25.2-14.15 4.39-8.78 14.2-11.38 23.47-12.98 6.38-1.11 8.71 3.05 11.73 7.58 5.35 10.2 14.87 19 26.6 19 8.58 0 15.67-4.21 23.56-6.94 3.27-1.13 7.78-2.96 10.02-4.06 9.7-4.75 16.84 2.46 25.78 5.08 6.78 1.99 12.68 1.28 17.64-3.68 3.13-3.14 5.59-6.67 8.14-10.29 3.24-3.09 6.52-4.37 10.67-6.04 6.92-2.79 10.59-13.68 13.09-20.07 1.4-3.58 3.74-6.24 6.39-8.9 0.61-1.14 1.18-2.28 1.69-3.47 1.7-4.06 7.34-7.55 10.52-10.73 6.26-8.12 8.96-23.05 1.4-31.33-6.49-7.12-13.88-13.26-22.5-17.57-3.25-1.67-6.07-3.7-8.9-6-4.54-1.83-8.78-3.94-12.6-7.05-1.69-1.37-2.93-2.2-4.2-2.79-9.68-4.54-9.29-18.38-12.41-27.26-1.94-3.55-3.2-7.12-3.89-11.15-1.07-6.25-2.88-12.97-7.95-17.1-7.58-6.17-13.44-14.22-17.05-23.25-5.29-13.22-23.46-21.4-36.61-21.4-3.02 0-7.52-0.67-10-1.5-7.25-2.42-18.05-1.82-23.97 3.68-3.42 3.17-3.44 9.9-4.18 14.25-2.64 0.25-5.27 0.49-7.9 0.74-5.99-2.99-13.16 5.16-15.23 10.05-5.47 12.96-20.92 17.78-34.08 17.78-6.69 0-7.33-6.51-5.08-11 2.61-5.24 4.71-10.7 6.13-16.39 2.34-9.43-5.41-14.16-12.08-18.61-9.38-6.56-19.51-3.8-28.05 2.55-5.23 3.89-10.31 5.63-17.06 4.95-6.41-0.64-12.71 1.68-18.79 3.4-3.74 0.28-7.17-2.23-8.89-5.47-7.87-4.66-16.7-2.75-25.32-1.43-6.28 0-12.21-1.1-17.89-3.95-3.39-1.69-6.41-2.43-10.11-3.15-5.89-3.42-12.17-5.15-18.89-6.35-3.17-0.56-6.07-1.59-9.11-2.65-6.55-3.52-13.7-4.06-21-4.9-3.66-1-7.33-2-11-3l-2.5-1.5c-4.93-2.96-9.44-6.79-13.99-10.3-5.37-3.37-10-7.63-14.7-11.85-3.85-1.92-7.57-4-11.3-6.15-4.4-4.95-6.72-10.273-9.51-16.303-1.08-1.303-2.17-2.604-3.25-3.907-7.58-6.705-12.04-2.083-17.94 4.459-1.9 2.116-6.12 2.053-7.94-0.136-3.03-3.635-2.41-7.839-1.76-12.312 1.39-9.579 2-19.418 2-29.104 0-8.039 2.72-15.694 6.79-22.483 5.71-5.049 7.42-11.563 2.26-17.913-4.26-5.238-5.05-9.992-5.05-16.5 0-4.204-0.37-8.722-2.11-12.539-1.94-4.235-3.71-9.301-3.89-13.961-0.15-3.744-3-7.31-4.9-10.396-0.94-4.43-2-8.815-3.1-13.208 0-7.895 7.56-17.208 11.95-23.844 3.78-5.726 5.05-15.272-3.06-18.156-2.83-3.128-6.13-4.292-10-6l-1.5-1.5c-1.33-1.334-1.66-1.632-2.97-2.684-2.15-1.722-2.68-5.303-3.42-7.816 0-14.434-5.1-30.019-15.49-40.146-7.83-7.63-8.41-15.438-9.51-25.854-0.7-2-1.4-4-2.11-6-1.85-4.632-3.81-9.211-5.79-13.792-3.83-12.75-3.1-26.49-3.1-39.708 0-10.439-7.41-17.979-17.11-20.396-4.69 0-9.2 0.526-13.85 1.11-8.08-2.421-12.7 5.662-17.15 10.994-4.49 5.184-7.57 10.382-9.89 16.896-1.15 3.214-3.55 5.548-5.9 7.896l-0.55 1.5c-1.54 4.186-3.07 8.378-4.5 12.604-1.27 3.738-3.41 6.385-6 9.301-5 5.605-8.53 13.601-11.05 20.699-3.46 4.977-9.05 6.509-15.11 5.5-5.64-0.942-12.23 1.308-17.79 2.396-9.61 0.442-14.85-5.648-21.21-12-6.34-7.668-12.43-12.687-21.59-17.232-8.91-4.426-12.42-5.664-16.04-5.664-7.97 0-9.54 3.656-11.33 10.298-2.07 7.671-8.02 5.488-12.45 0.686-4.74-5.15-3.63-13.331-2.41-19.719 1.38-7.296-0.88-14.852-9.7-12.257-2.72 0.8-5.42 1.474-8.19 2.07-3.88 0.834-8.66 2.096-11.09 5.403-1.89 2.559-3.83 5.101-5.93 7.487-4.29 4.864-10.12-4.178-14.22-5.955-11.49-4.988-24.32 3.467-35.13 5.909-2.51 0.567-5.55 2.347-7.88 4.618-5.28 5.136-7.66 2.63-9.93-3.04 0-2.608 0.16-5.096 1-7.604 3.71-11.123-6.68-23.57-14-30.896-4.42-4.422-11.4-6.76-16.84-2.556-7.18 5.557-6.04 17.145-0.31 23.254 5.72 6.106 8.26 14.639 4.42 22.672-2.54 5.314-7.41 8.839-11.67 12.69-7.63 6.894-17.11-6.834-19.37-13.852-1.47-4.53-4.76-11.255-10.72-9.194-4.25 1.471-6.59 6.015-8.43 9.876-3.12 6.527-7.65 17.964-5.11 25.264 2.64 7.578 8.42 8.658 15 11.798 10.01 4.77 14.41 11.497 16.19 22.117 0.94 5.667 1.97 11.272 4.76 16.325 2.2 4.002 4.56 12.323-1.41 14.799-3.32 1.377-8 1.28-11.45 0.268-3.65-1.072-9.15 2.256-12.64 3.476-6.49 2.261-14.3-5.496-19.53-9.041-7.44-5.707-15.58-5.283-24.79-5.896-10.09-1.978-20.45-2.719-30.68-1.443-8.1 1.011-16.36-4.237-22.92-8.557-2.8-1.844-5.38-3.282-8.5-4.5-3.8-1.483-7.35-3.415-10.9-5.396l-2.61-1.082c-4.07-1.686-4.49-6.005-4.49-9.9 0-8.602-4.8-9.91-12.15-7.648-2.84 0.874-5.52 1.607-8.46 2.026-5.74 0.82-16.75 0.445-21.77-2.804-7.28-4.714-5.47-17.638-7.63-25.068-3.14-10.811-19.41-9.598-28.04-12.68-7.69-2.746-8.6-12.588-10.03-19.786-1.49-1.664-2.96-3.342-4.42-5.03-5.8-6.691-6.11-18.739 3.05-21.831 3.42-1.156 8.57-6.937 4.01-10.256-3.81-2.775-9.67 0.445-13.13 2.161-3.56 1.763-8.05 3.388-9.99 3.61-5.38 0.616-9.53-4.908-13.51-7.954-8.99-3.113-14.47-10.4-21.04-16.966-5.26-4.035-10.1-5.299-16.85-5.688-4.28-0.247-8.31-0.868-8.96-1.38-1.29-1.015-2.57-2.046-3.85-3.074-1.64-5.964-4.03-11.441-6.77-16.992-2.48-5.021-5.18-11.062-5.46-16.762-0.54-10.842-16.75-8.178-22.9-5.104-6.71 2.189-12.05-4.454-17.21-8-1.89-1.46-3.8-2.848-5.95-3.924-4.24-2.12-2.88-9.478-2.34-13.323 1.85-13.093-12.59-13.635-19.6-20.649-3.33-3.332-6.8-5.9-11-8-2.3-1.18-4.48-2.411-6.5-4.052-2.52-2.047-5.22-3.338-8.14-4.772-6.97-3.43-11.32-9.09-15.81-15.124-2.44-3.279-4.65-5.1-8.27-6.91-1.63-2.224-3.01-4.542-4.22-7.036-1.01-2.084-2.14-4.108-2.5-4.5-0.77-0.818-1.43-1.706-2.11-2.596-4.37-5.678 3.21-13.573 7.55-17.01 2.38-1.612 4.69-3.286 7-5 2.35-1.568 4.62-3.21 6.89-4.896 1.92-1.316 3.78-2.68 5.57-4.164 3.92-3.252 8.88-5.02 13.54-6.94 9.31-3.839 15.41-11.116 15.74-21.223 0.27-8.008 2.34-14.053 5.9-21.06 3.52-3.712 7.02-7.431 10.49-11.188 9.33-10.108 8.17-32.224-1.63-42.029-3.76-3.754-5.58-8.759-7.95-13.5-7.85-15.694-5.6-34.959-6.55-52.104v-2.631c0-10.933-15.68-12.928-19.43-2.963-4.85 12.903-16.97 5.406-26.07 2.75-5.61-1.636-14.23-0.739-15.58 6.86-0.53 3.008-5.34 5.256-7.97 6.64-10.03 5.26-2.05 18.068 0.19 25.548 3.68 12.286-11.54 15.202-20.2 18.517-2.77 1.061-6.53 2.819-5.64 6.439 0.78 3.13 6.52 2.014 8.86 1.43 3.93-0.982 8.92 1.503 12.44 3.066 6.42 2.845 15.2 10.169 13.24 17.972-3.04 12.104-19.92 10.664-28.84 9.028-9.28-1.702-20.47-2.828-29.78-0.592-11.4 2.74-18.32 8.677-22.12 19.936-3.02 11.017-14.83 18.468-24.62 23.365-6.66 3.325-12.87 8.52-16.26 15.295-1.44 2.881-5.48 7.444-8.95 7.444-4.44 0-8.85-7.959-11.38-11.104-1.65-2.166-3.2-4.292-3.59-7.09-1.92-13.837-15.84-27.654-30.16-22.44-11.55 4.206-7.95 20.162-11.14 29.738-2.67 7.997-9.96 11.21-17.61 5.844-7.53-5.283-8.01-12.73-6.47-21.068 2.12-11.483 11.14-12.371 21.18-14.88 6.44-2.448 8.17-11.68 5.79-17.719-1.65-4.176-5.29-6.816-8.66-9.527-2.98-6.868-6.18-19.465 0.73-25.222 3.62-3.014 8.15-4.18 12.54-5.598 10.88-3.513 13.01-11.009 9.06-21.01-11.85-10.491-29.93-7.471-43.42-1.996-5.82 8.009-7.12 18.868-10.14 28.176-5.08 12.688-20.05 11.037-30.88 16.338-4.52 2.21-9.53 4.558-14.63 4.558-5.22 0-6.1-7.352-7.27-10.944-2.13-6.511-3.12-9.835 1.91-14.739 1.95-1.893 4.29-5.059 5.2-7.032 3.15-6.775 2.51-12.445-2.33-17.285-1.57-1.57-3.14-3.1-4.82-4.544-9.08-7.774-0.12-19.716 3.32-28.128 0.82-2.019 1.5-4.907 1.5-6.416 0-8.86-13.81-5.782-19.32-7.803-7.83-2.871-4.85-15.016-6.68-21.609-1.86-6.698-6.24-13.122-14.11-10.5-4.46 1.489-8.33 4.833-12.09 7.7-7.03 5.374-18.4 3.5-26.62 2.406-10.86-1.442-15.34-10.408-12.76-20.885 0.32-1.279 0.11-4.961-0.45-8.183-1.03-5.818 0.11-10.21 2.82-15.349 2.47-4.675 3.61-14.875 1.54-19.863-1.58-3.8-5.54-0.413-6.7 1.908-5.57 11.146-21.99 12.414-32.74 10.266-9.8-1.96-15.66 5.529-19.65 13.522-1.24 2.463-6.66 9.179-9.69 8.131-1.28-0.445-1.55-2.544-1.55-12.148 0-6.385-0.38-12.84-0.85-14.344-1.33-4.32-9.57-9.284-10.8-2.091-0.4 2.338-0.06 4.452 0.23 6.811 1.49 12.177-10.03 14.828-19.41 17.331-2.71-0.935-3.87-2.302-5.85-4.508-4.69-5.244-9.46-10.414-14.22-15.6-9.04-10.082-26.51-5.168-38.21-3.104-7.37 3.781-4.38 12.118-1.18 18.124 2.88 5.384 5.22 15.569-0.37 19.968-4.01 3.145-11.71 3.721-16.45 5.012-4.82 2.285-9.52 0.896-14.63 0.896-6.92 0-8.49 6.858-11.99 11.057-4.31 5.164-11.61 9.804-18.03 11.26-7.41 1.681-6.22 14.092-7.79 19.787-1.55 5.613-6.7 9.721-10.63 13.584-6.31 6.19-17.34 12.552-26.49 7.978-5.05-2.524-5.81-9.024-6.05-14.026-0.45-9.294 0.13-18.972 2.38-28.022 1.45-5.825 1.3-12.488-1.88-17.734-6.98-11.532-19.95-1.884-29.74-1.884-8.43 0-7.82-12.178-8.04-18.104 0.54-4.88 0.93-9.696 0.43-14.611-0.57-5.531 0.11-11.604 2.71-16.571 2.84-2.061 5.23-2.978 8.67-3.976 10.16-2.942 13.14-11.158 10.27-21.098-2.86-9.898-8.3-12.652-17.2-15.46z" fill="inherit"/><path d="m1883.6 2620.6c-8.63-4.12-16.93-1.86-25.86-1.86-7.69 0-22.57 0.57-27.23 8.45-1.25 2.11-2.35 4.26-3.45 6.45-0.3 3.2-2.75 4.75-5 7l-0.33 1.11c-1.04 3.46-5.62 6.55-8.11 9.11l-7.77 7.98c-3.26 3.83-6.54 7.64-9.89 11.4-3.55 3.98-6.73 8.13-9.9 12.4-1.75 2.1-4.23 3.16-6.66 4.38-10.13 5.06-15.22 17.39-13.88 28.48 0.54 4.39-0.6 9.06-3.67 12.34-1.81 2.38-3.2 4.21-4.04 7.09-3.9 13.33 2.52 24.63 5.17 37.21l1.17 1.8c3.98 6.16 11.16 7.34 18.08 8.03 4.57 0.45 8.9 1.21 13.14 2.94 5.19 4.81 7.59 11.5 9.04 18.33 2.65 12.53 16.4 6.99 26.05 10 0.88 0.28 2.21 0.95 2.95 1.49 7.86 5.79 21.11 7.01 30.65 7.01 4.71 0 9.88-1.87 13.42-4.88 1.77-1.5 2.53-2.04 2.98-2.12 1.72-0.3 3.39-2.65 4.66-3.8 5.96-5.44 15.29-5.48 21.35-0.33 3.86 3.28 8.13 5.52 13.05 6.73 11.15 2.75 13.28-12.79 18.17-18.66 2.54-3.05 5.16-5.12 9.2-6.04 3.52-0.8 8.61-2.09 9.62-6.26 1.19-4.93-3.91-10.7-6.45-14.54-1.32-2.64-2.38-5.31-3.1-8.2-0.55-2.2-1.96-5.96-3.13-8.36-3.97-8.1-2.23-15.55 3.02-22.44 5.2-6.45 5.89-13.46 6.87-21.69 0.82-6.93 2.4-15.39 3.5-18.82 1.75-5.41 2.15-12.46-3.37-15.69-3.71-2.87-7.78-4.84-11.94-6.95-3.64-1.84-5.99-3.98-8.85-6.85-2.83-1.48-5.44-3.32-8.1-5.1-6.85-2.52-11.48-9.86-16.45-15-12.34-12.75-13.58-14.03-15.05-15.5-2.88-2.88-6.19-4.89-9.86-6.64z" fill="inherit"/><path d="m1585.7 3025c-3.62-2.76-10.81-2.94-14.53-0.4-1.72 4.29-2.71 8.03-3.35 12.66-1.42 10.32-5.14 14.68-14.15 18.81-5.48 2.51-9.92 5.89-10.41 12.25-0.49 6.41 1.47 12.76 3.79 18.65 1.78 4.5 1.89 5.72 0.86 9.86-2.34 9.44 5.35 18.74 9.11 26.99l1.67 2.02 1.66 2.01c1.22 0.71 2.33 1.48 3.45 2.34 6.08 4.69 15.63 5.45 21.62 0.58 4.99-4.05 11.37-5.89 17.5-7.5 10.14-2.66 13.94-15.36 15.55-24.15 2.23-12.21 5.92-25.42 11.45-36.55 3.34-6.73 4.44-14.63-3.45-19.3-5.17-3.05-10.13-2.75-15.86-2.01-10.98 1.43-17.33-10.47-24.91-16.26z" fill="inherit"/><path d="m1268 2809.2c-5.59-4.3-13.29-3.79-18.61 0.53-3.59 2.92-7.89 4.04-12.61 3.45-13.19-1.65-19.57 11.88-28.21 19.55-5.94 5.26-7.22 15.46-9.13 22.85-2.64 10.21-1.67 18.97 2.9 28.1 1.89 3.8 3.64 7.39 4.95 11.44 4.18 12.9 19.72 7.16 29.61 8.15 6.67 0.66 8.57-1.01 13.27-5.23 7.09-2.72 11.51-8.34 16.76-13.69 4.68-4.78 9.07-9.33 10.96-15.77v-4c-1.38-6.21-2.14-10.32 0.71-16.36 4.04-8.53 5.28-19.78 0.89-28.39-2.39-4.69-7.36-7.45-11.49-10.63z" fill="inherit"/><path d="m2095.3 2492.6l-3.47-0.87h-2.89c-1.86 0.8-3.14 1-5.22 1-7.92 0-12.76 5.92-17.72 11.12-5.6 5.88-12.3 6.41-19.88 7.11-6.26 0.58-13.1 1.54-18.51 5.04-3.87 2.51-3.81 8.33-4.17 12.33-0.28 3.03-1.18 7.26-2 9.4-1.27 3.29-1.99 6.66-2.61 10.1-1.94 5.25-1.48 10.05 2.06 14.4 2.63 3.24 4.73 7.02 7.05 10.5 5.27 11.94 19.63-0.15 27.61-2 2.34-0.55 4.55-1.11 6.78-2 7.97-3.19 16.17-11.99 19.16-19.6 1.4-3.58 3.2-7.63 4-9 2.69-4.65 3.96-10.29 5.61-15.38 1.99-2.37 3.96-4.75 5.94-7.12 6.03-7.86 10.85-21.9-1.74-25.03z" fill="inherit"/><path d="m307.3 1426.2c-6.835-2.93-10.593-0.67-17.396-0.5-2.257 0.06-5.455 0.76-7.104 1.55-1.653 0.8-5.857 1.45-9.365 1.45-8.106 0-9.976 3.4-10.272 11.24-0.19 5.02-0.494 10-0.87 15.01-0.458 6.13-0.554 13.19 3.559 18.25 1.195 1.47 2.007 2.7 2.359 4.53 2.018 1.21 3.837 2.64 5.705 4.07 9.257 2.27 16.635 7.17 24.988 11.35 9.364 4.68 18.723-6.47 24.821-12 5.175-4.69 6.556-10.58 4.582-17.46-1.476-5.14-2.802-10.71-1.903-16.09 1.447-8.68-2.759-15.52-10.757-18.25-2.832-0.96-5.598-1.97-8.347-3.15z" fill="inherit"/><path d="m1550.4 2694c-10.75-4.99-20.97 0.47-31.6 1.91-3.38 0.46-6.99 1.65-8.35 2.76-1.56 1.27-2.61 1.98-3 2.05-3.09 0.54-6.54 6.86-7.63 9.38-1.93 4.44-1.29 7.71 0.09 12.36 6.81 6.02 4.47 14.28 6.88 22.1 2.45 7.93 12.84 7.38 19.14 10.12 5.68 2.46 10.67 4.06 16.49 1.64 11.83-4.9 20.34-13.94 21.78-26.92 1.46-13.23-0.7-29.32-13.8-35.4z" fill="inherit"/><path d="m2264.9 2564.8c-11.62-5.04-24.46 5.77-34.51 9.94-9.81 4.06-0.57 17.96 2.4 23.92 1.74 3.47 3.43 6.94 5.02 10.48 2.53 5.63 7.25 8 11.98 11.52 1.84 1.84 2.93 4.69 4.04 6.97 1.39 2.86 3.64 7.13 7.52 7.13 2.65 0 6.69-1.89 7.88-4.39 2.84-5.94 10.15-11.05 14.77-15.71 2.96-3.88 4.9-7.49 4.9-12.5 0-15.16-9.22-23.32-18.9-33.3-1.65-1.84-2.8-3.06-5.1-4.06z" fill="inherit"/><path d="m3184.6 1898.9c-8-6.09-17.13 1.27-24.75 3.37-10.96 3.03-12.66 18.6-13.89 27.55 0 17.47 21.91 22.96 34.89 26.8 8.62-0.88 9.82-9.88 12.86-16.69 6.36-14.29 3.59-31.36-9.11-41.03z" fill="inherit"/><path d="m1323.1 2593.4c-5.82-2.53-15.04-2.76-19.12 2.78-2.11 2.86-4.09 5.58-5.54 8.87-1.47 3.32-3.27 5.75-5.55 8.55-1.12 3.35-2.08 6.49-2.6 10-0.79 5.35 1.6 9.06 5.7 12.2 4.14 3.52 6.04 7.64 7.83 12.76 7.34 5.34 15.67-5.66 22.07-8.86 8.2-5.01 13.81-12.62 14.73-22.32 1.02-10.7-8.39-20.02-17.52-23.98z" fill="inherit"/><path d="m2171.1 2777.4c-9.05-4.08-18.71-0.57-22.49 8.14-4.51 10.39 0.85 16.96 6.23 25.04 1.73 5.55 9.97 12.83 15.05 15.04 7.53 3.26 15.88-0.3 18.22-8.13 2.34-7.81 5.79-19.51 3.08-27.52-2.48-7.37-13.64-9.67-20.09-12.57z" fill="inherit"/><path d="m1624.4 2932.4l-6.57-2.12-3.46-0.29c-6.98-0.59-10.65 4.97-13.03 10.55-4.1 9.62-4.93 21.54-0.97 31.3 3.78 2.97 8.05 2.72 12.72 2.26 4.92-0.48 6.93-0.2 10.61 1.5 7.62 3.52 16.41 2.03 17.05-7.54 0.6-9.02-1.87-17.81-3.75-26.6-0.82-1.26-1.63-2.51-2.44-3.77-2.97-2.63-6.36-4.06-10.16-5.29z" fill="inherit"/><path d="m210.63 2500c-7.744-5.91-13.611 4.18-20.396 6.85-4.1 1.62-7.485 4.76-9.244 8.81-3.403 7.84-6.933 22.1 3.351 25.51 7.381 2.45 17.654 5.7 25.173 2.54 8.755-3.69 8.672-11.05 9.539-20.18 0.614-6.48 0.81-12.7 0.436-13.83-1.471-4.41-5.295-6.98-8.859-9.7z" fill="inherit"/><path d="m2023.7 2747.7c-5.99-2.6-10.89 2.04-16.21 4.48-10.71 4.9-15.64 19.03-11.83 30.3 3.54 10.49 20.04 7.5 27.84 4.22 10.57-4.45 20.23-17.66 11.45-28.45-1.52-1.87-1.99-2.62-2.12-3.4-0.48-2.75-6.95-6.2-9.13-7.15z" fill="inherit"/><path d="m578.67 2619c-6.929-5.29-14.573 2-21.17 4.66-7.982 3.21-8.663 13.4-3.643 19.57 1.269 1.56 1.984 2.61 2.052 3 1.271 7.35 12.345 10.5 18.104 10.5 6.451 0 14.403-4.34 16.945-10.2 4.752-10.95-4.224-21.38-12.288-27.53z" fill="inherit"/><path d="m758.02 254.35c-3.148-3.065-8.025-6.516-12.613-4.585-12.46 5.244-2.157 23.269-3.055 33.178-0.305 3.37-0.125 7.116 0.4 8.327 2.46 5.668 10.063 1.856 14.155 0.443 11.505-3.974 14.719-20.072 7.052-29.5-1.112-1.368-1.96-2.487-2.192-4.215z" fill="inherit"/><path d="m1409.2 2528.6c-5.59-4.06-17.5-1.21-23.39 1.26-3.31 3.55-7.57 5.7-12.2 7.28-6.33 2.16-6.99 10.1-0.51 12.69 11.1 4.44 25.96 3.75 35.86-3.62 4.59-3.42 4.98-14.16 0.24-17.61z" fill="inherit"/><path d="m565.19 2498.4c-6.64-5.54-12.639 2.79-16.687 6.95-3.523 3.62-6.697 7.79-7.053 9.27-1.787 7.38 6.709 15.24 13.57 15.88 6.584 0.62 10.482-3.38 12.936-9.04 2.375-5.47 2.314-18.83-2.766-23.06z" fill="inherit"/><path d="m2637.8 2861.7c-9.14-3.96-16.18 2.3-16.75 11.24-0.32 5.13-0.01 16.28 7.05 17.4 7.23 1.15 15.97-4.31 18.81-10.85 3.19-7.36-2.57-14.95-9.11-17.79z" fill="inherit"/><path d="m2094 2424.7c-10.54-4.88-20.04 2.32-20.04 13.59 0 13.09 21.22 11.86 27.14 3.73 4.7-6.46-0.88-14.44-7.1-17.32z" fill="inherit"/><path d="m194.84 1231.1c-2.618-4.01-10.314-2.08-13.352 0.25-4.033 9.73 3.155 16.86 9.88 22.44 2.588 2.15 14.539 7.61 14.539-0.11 0-7.59-7.041-16.42-11.067-22.58z" fill="inherit"/><path d="m712.38 317.68c-5.195-4.616-16.675-3.907-18.159 4.172-1.261 6.859 8.501 15.913 14.235 17.851 3.28 1.108 4.88-0.559 7.242-2.448 5.73-4.586 0.876-15.846-3.318-19.575z" fill="inherit"/><path d="m1452.9 194.19c-4.46-3.715-15.65-4.047-18.18 2.053-2.06 4.965 1.03 9.288 3.57 13.481 2.57 2.276 9.54 7.866 13.35 4.954 6.04-4.628 7.69-15.13 1.26-20.488z" fill="inherit"/><path d="m2966.2 1749.6c-4.79-4.44-13.01-1.35-18.16 0.75-6.58 2.68-11.52 9.67-4.09 15.08 7.94 5.77 14.37-1.3 19.96-6.39 2.62-2.39 5.59-6.38 2.29-9.44z" fill="inherit"/><path d="m126.46 806.76c-5.013-4.458-9.038-3.458-10.736 2.213-1.533 5.121 0.659 12.543 4.972 15.931 3.554 2.792 6.06 0.716 8.956-1.603 5.412-4.335 0.651-13.125-3.192-16.541z" fill="inherit"/><path d="m169.52 1312.9c-6.479-6.16-14.213-0.37-9.296 7.23 5.065 7.83 16.368-0.5 9.296-7.23z" fill="inherit"/><path d="m1481 268.92c-1.42-2.834-6.51-3.048-8.34-0.448-2.36 3.369-2.89 11.449 2.29 12.73 6.65 1.648 8.28-7.83 6.05-12.282z" fill="inherit"/></g></g></svg>